<svg class="notification-StopPropagation" width="25" height="25" viewBox="0 0 25 25" fill="none" xmlns="http://www.w3.org/2000/svg">
<circle class="notification-StopPropagation" cx="12.4096" cy="12.4096" r="12.4096" fill="#2E66F9"/>
<path class="notification-StopPropagation" d="M13.4765 16.7577H11.6013V9.47742H13.4765V16.7577ZM11.491 7.57462C11.491 7.29885 11.5829 7.07364 11.7668 6.89899C11.9598 6.71514 12.2172 6.62322 12.5389 6.62322C12.8514 6.62322 13.1042 6.71514 13.2973 6.89899C13.4903 7.07364 13.5868 7.29885 13.5868 7.57462C13.5868 7.85039 13.4903 8.08019 13.2973 8.26404C13.1042 8.43869 12.8514 8.52602 12.5389 8.52602C12.2172 8.52602 11.9598 8.43869 11.7668 8.26404C11.5829 8.08019 11.491 7.85039 11.491 7.57462Z" fill="#D9D9D9"/>
</svg>
