<svg width="30" height="29" viewBox="0 0 30 29" fill="none" xmlns="http://www.w3.org/2000/svg">
<path fill-rule="evenodd" clip-rule="evenodd" d="M16.4686 9.47266C17.4668 9.47238 18.4426 9.76632 19.2726 10.3173C20.1027 10.8683 20.7497 11.6516 21.1318 12.5681C21.514 13.4845 21.614 14.4931 21.4193 15.4661C21.2246 16.4391 20.744 17.3329 20.0382 18.0343C19.3324 18.7358 18.4331 19.2135 17.4541 19.407C16.4751 19.6005 15.4604 19.501 14.5383 19.1213C13.6161 18.7415 12.8281 18.0984 12.2737 17.2735C11.7193 16.4485 11.4236 15.4787 11.4238 14.4866C11.4238 13.1568 11.9553 11.8815 12.9014 10.9412C13.8475 10.0009 15.1307 9.47266 16.4686 9.47266ZM16.4686 13.9498C16.3614 13.9495 16.2565 13.9809 16.1673 14.0399C16.078 14.099 16.0084 14.183 15.9672 14.2814C15.9261 14.3798 15.9152 14.4881 15.9361 14.5926C15.9569 14.6971 16.0085 14.7932 16.0844 14.8685C16.1602 14.9439 16.2568 14.9952 16.3619 15.0159C16.4671 15.0366 16.5761 15.0258 16.6751 14.9849C16.7741 14.944 16.8587 14.8748 16.918 14.7861C16.9774 14.6974 17.009 14.5932 17.0087 14.4866C17.0087 14.3442 16.9518 14.2077 16.8505 14.107C16.7493 14.0063 16.6119 13.9498 16.4686 13.9498ZM18.5255 11.2932C18.3206 11.2932 18.1203 11.3536 17.9499 11.4667C17.7795 11.5798 17.6467 11.7407 17.5683 11.9288C17.4899 12.117 17.4694 12.324 17.5094 12.5237C17.5493 12.7235 17.648 12.907 17.7929 13.051C17.9378 13.195 18.1224 13.293 18.3234 13.3328C18.5243 13.3725 18.7326 13.3521 18.922 13.2742C19.1113 13.1962 19.2731 13.0643 19.3869 12.8949C19.5008 12.7256 19.5615 12.5265 19.5615 12.3229C19.5615 12.0498 19.4524 11.7878 19.2581 11.5948C19.0638 11.4017 18.8003 11.2932 18.5255 11.2932Z" fill="#0B090A" fill-opacity="0.76"/>
<path fill-rule="evenodd" clip-rule="evenodd" d="M15.3523 21.4318C11.9624 22.9582 8.18368 23.4172 4.52368 22.747C7.41214 24.1857 13.8604 23.7217 15.3523 21.4318Z" fill="#D62B2C"/>
<path fill-rule="evenodd" clip-rule="evenodd" d="M18.3804 20.6153C14.735 24.6531 7.3004 24.9826 7.48963 25.021C14.6148 26.4763 17.5999 21.7739 18.3804 20.6153Z" fill="#D62B2C"/>
<path fill-rule="evenodd" clip-rule="evenodd" d="M21.167 19.3535C17.8668 23.0001 18.8448 22.6308 12.0056 27.057C19.2896 26.5366 20.8133 20.5686 21.167 19.3535Z" fill="#D62B2C"/>
<path fill-rule="evenodd" clip-rule="evenodd" d="M22.9323 16.5605C22.167 23.0573 18.0975 28.0178 18.1321 28.0012C23.4021 25.3721 23.3274 20.5434 22.9323 16.5605Z" fill="#D62B2C"/>
<path fill-rule="evenodd" clip-rule="evenodd" d="M22.406 11.4902C23.5207 13.9162 25.4615 17.8647 23.1117 26.9755C22.9737 27.4877 26.2172 23.9277 25.4726 17.9142C25.2751 16.3326 23.7943 12.4142 22.406 11.4902Z" fill="#D62B2C"/>
<path fill-rule="evenodd" clip-rule="evenodd" d="M22.4799 9.19602C23.6555 10.9506 25.4291 13.1693 26.3478 16.6099C27.0922 19.4079 27.0756 24.1391 27.0784 24.1321C28.5675 21.4974 28.3646 18.6404 27.6697 16.3765C26.2497 11.7593 22.1968 8.77317 22.4799 9.19602Z" fill="#D62B2C"/>
<path fill-rule="evenodd" clip-rule="evenodd" d="M26.4645 2.58288C26.4645 3.3023 26.4174 3.5357 25.6964 3.88855C25.0126 4.22217 24.1617 4.73977 24.1617 4.73977C31.1914 8.99035 29.9083 19.4109 29.9083 19.4109C29.7564 18.6833 26.9368 12.6451 26.3926 11.739C21.6241 3.79243 15.7339 8.47276 15.6593 8.3341C15.057 7.20417 15.785 6.49437 16.8584 5.49625C17.4233 4.97041 17.2728 3.92561 18.6542 3.50413C20.5204 2.93984 23.0883 3.6016 24.8358 1.78521C25.1894 1.41727 25.7655 0.242034 26.4438 0.000397191C26.4494 -0.0325523 26.4645 1.9939 26.4645 2.58288Z" fill="#D62B2C"/>
<path fill-rule="evenodd" clip-rule="evenodd" d="M13.9809 19.9496C13.9105 19.9236 7.73434 22.2631 0 19.7794C3.42166 22.0982 11.6906 22.6049 13.9809 19.9496Z" fill="#D62B2C"/>
<path d="M18.4722 13.5094C19.1347 13.5094 19.6718 12.9756 19.6718 12.3172C19.6718 11.6588 19.1347 11.125 18.4722 11.125C17.8098 11.125 17.2727 11.6588 17.2727 12.3172C17.2727 12.9756 17.8098 13.5094 18.4722 13.5094Z" fill="white"/>
<path d="M16.5534 15.101C16.8626 15.101 17.1132 14.8519 17.1132 14.5446C17.1132 14.2374 16.8626 13.9883 16.5534 13.9883C16.2443 13.9883 15.9937 14.2374 15.9937 14.5446C15.9937 14.8519 16.2443 15.101 16.5534 15.101Z" fill="white"/>
</svg>
