<svg width="25" height="24" viewBox="0 0 25 24" fill="none" xmlns="http://www.w3.org/2000/svg">
<path d="M7.87132 15.8891L9.00491 17.0212C9.94958 17.9646 11.1965 17.8514 12.0278 17.0212L13.9512 15.1004C14.3479 14.7042 14.3479 14.0551 13.9512 13.6589L11.2419 10.9532C10.8451 10.557 10.1952 10.557 9.79844 10.9532L7.8751 12.874C7.04002 13.7004 6.92665 14.9457 7.87132 15.8891Z" stroke="#1C846A" stroke-linecap="round" stroke-linejoin="round"/>
<path d="M11.8004 11.209L11.6498 11.3603" stroke="#1C846A" stroke-linecap="round" stroke-linejoin="round"/>
<path d="M13.7095 13.0782L13.5389 13.2483" stroke="#1C846A" stroke-linecap="round" stroke-linejoin="round"/>
<path d="M6.17092 18.7192L8.43811 16.4551" stroke="#1C846A" stroke-linecap="round" stroke-linejoin="round"/>
<path d="M17.8904 8.11509L16.7568 6.98301C15.8121 6.03961 14.5652 6.15281 13.7339 6.98301L11.8105 8.90378C11.4138 9.30001 11.4138 9.94907 11.8105 10.3453L14.5198 13.051C14.9166 13.4472 15.5665 13.4472 15.9633 13.051L17.8866 11.1302C18.7217 10.3038 18.8351 9.0585 17.8904 8.11509Z" stroke="#1C846A" stroke-linecap="round" stroke-linejoin="round"/>
<path d="M19.5908 5.28493L17.3236 7.5491" stroke="#1C846A" stroke-linecap="round" stroke-linejoin="round"/>
</svg>
