<svg class="notification-StopPropagation" width="25" height="26" viewBox="0 0 25 26" fill="none" xmlns="http://www.w3.org/2000/svg">
<circle class="notification-StopPropagation" cx="12.4096" cy="12.7781" r="12.4096" fill="#FFA621"/>
<path class="notification-StopPropagation" d="M13.7197 14.603H12.2168L11.9962 7.76393H13.9266L13.7197 14.603ZM11.8169 16.8367C11.8169 16.515 11.9272 16.2484 12.1478 16.037C12.3685 15.8164 12.6442 15.706 12.9752 15.706C13.2969 15.706 13.5681 15.8164 13.7887 16.037C14.0185 16.2484 14.1334 16.515 14.1334 16.8367C14.1334 17.1676 14.0185 17.448 13.7887 17.6778C13.5681 17.8984 13.2969 18.0087 12.9752 18.0087C12.6442 18.0087 12.3685 17.8984 12.1478 17.6778C11.9272 17.448 11.8169 17.1676 11.8169 16.8367Z" fill="white" fill-opacity="0.9"/>
</svg>
